<svg width="356" height="96" viewBox="0 0 356 96" fill="none" xmlns="http://www.w3.org/2000/svg">
<path d="M125.687 80V67.6H96.2671H93L117.306 16H124.508L103.469 61.3778H125.687V42.7111H132.147V61.3778H139V67.6H132.147V80H125.687Z" fill="#283F94"/>
<path d="M198 0C224.51 0 246 21.4903 246 48C246 74.5097 224.51 96 198 96C171.49 96 150 74.5097 150 48C150 21.4903 171.49 0 198 0ZM198 16C180.327 16 166 30.3269 166 48C166 65.6731 180.327 80 198 80C215.673 80 230 65.6731 230 48C230 30.3269 215.673 16 198 16Z" fill="#283F94"/>
<path d="M289.687 80V67.6H260.267H257L281.306 16H288.508L267.469 61.3778H289.687V42.7111H296.147V61.3778H303V67.6H296.147V80H289.687Z" fill="#283F94"/>
</svg>
