<svg width="362" height="156" viewBox="0 0 362 156" fill="none" xmlns="http://www.w3.org/2000/svg">
<g clip-path="url(#clip0_227_2178)">
<path d="M66.0844 142V117.2H6.60521H0L49.1408 14H63.7017L21.1661 104.756H66.0844V67.4222H79.1451V104.756H93V117.2H79.1451V142H66.0844Z" fill="#283F94"/>
<path d="M181 0C224.078 0 259 34.9218 259 78C259 121.078 224.078 156 181 156C137.922 156 103 121.078 103 78C103 34.9218 137.922 0 181 0ZM181 34C156.7 34 137 53.6995 137 78C137 102.301 156.699 122 181 122C205.301 122 225 102.301 225 78C225 53.6996 205.3 34 181 34Z" fill="#283F94"/>
<path d="M335.084 142V117.2H275.605H269L318.141 14H332.702L290.166 104.756H335.084V67.4222H348.145V104.756H362V117.2H348.145V142H335.084Z" fill="#283F94"/>
</g>
<defs>
<clipPath id="clip0_227_2178">
<rect width="362" height="156" fill="white"/>
</clipPath>
</defs>
</svg>
